<svg fill="none" height="1200" viewBox="0 0 1200 1200" width="1200" xmlns="http://www.w3.org/2000/svg" xmlns:xlink="http://www.w3.org/1999/xlink"><linearGradient id="a"><stop offset="0" stop-color="#fff"/><stop offset=".447917" stop-color="#fefdfc"/><stop offset="1" stop-color="#e0d5c0"/></linearGradient><linearGradient id="b" gradientUnits="userSpaceOnUse" x1="600.206" x2="600.206" xlink:href="#a" y1="48" y2="576.881"/><linearGradient id="c"><stop offset="0" stop-color="#ffaf75"/><stop offset="1" stop-color="#ffaf75" stop-opacity="0"/></linearGradient><linearGradient id="d" gradientUnits="userSpaceOnUse" x1="600.206" x2="600.206" xlink:href="#c" y1="338.842" y2="576.724"/><linearGradient id="e"><stop offset="0" stop-color="#e1f5de"/><stop offset=".510417" stop-color="#e1f5de"/><stop offset="1" stop-color="#e1f5de" stop-opacity=".2"/></linearGradient><linearGradient id="f" gradientUnits="userSpaceOnUse" x1="1078.26" x2="620.232" xlink:href="#e" y1="325.036" y2="589.477"/><linearGradient id="g" gradientUnits="userSpaceOnUse" x1="1078.66" x2="620.637" xlink:href="#a" y1="877.098" y2="612.657"/><linearGradient id="h" gradientUnits="userSpaceOnUse" x1="826.786" x2="620.773" xlink:href="#c" y1="731.676" y2="612.735"/><linearGradient id="i" gradientUnits="userSpaceOnUse" x1="600.127" x2="600.127" xlink:href="#e" y1="1152.09" y2="623.206"/><linearGradient id="j" gradientUnits="userSpaceOnUse" x1="121.75" x2="579.775" xlink:href="#a" y1="876.539" y2="612.098"/><linearGradient id="k" gradientUnits="userSpaceOnUse" x1="373.627" x2="579.639" xlink:href="#c" y1="731.119" y2="612.178"/><linearGradient id="l" gradientUnits="userSpaceOnUse" x1="122.156" x2="580.181" xlink:href="#e" y1="324.098" y2="588.538"/><g clip-rule="evenodd" fill-rule="evenodd"><path d="m600.206 576.882c66.522-68.287 107.5-161.579 107.5-264.441 0-102.863-40.978-196.154-107.5-264.441-66.522 68.287-107.5 161.578-107.5 264.441 0 102.862 40.978 196.154 107.5 264.441z" fill="url(#b)"/><path d="m600.206 576.725c-29.921-30.715-48.352-72.676-48.352-118.942s18.431-88.227 48.352-118.941c29.92 30.714 48.351 72.675 48.351 118.941s-18.431 88.227-48.351 118.942z" fill="url(#d)"/><path d="m620.232 589.477c92.398 23.466 193.68 12.309 282.762-39.123 89.082-51.431 149.386-133.565 175.266-225.318-92.403-23.466-193.684-12.308-282.766 39.123s-149.386 133.565-175.262 225.318z" fill="url(#f)"/><path d="m620.637 612.657c25.877 91.753 86.181 173.887 175.263 225.318 89.081 51.431 190.363 62.589 282.76 39.123-25.87-91.753-86.179-173.887-175.26-225.318-89.082-51.432-190.364-62.589-282.763-39.123z" fill="url(#g)"/><path d="m620.773 612.735c41.56-10.555 87.115-5.536 127.182 17.597 40.068 23.133 67.192 60.075 78.831 101.344-41.56 10.555-87.115 5.536-127.182-17.597-40.068-23.133-67.192-60.075-78.831-101.344z" fill="url(#h)"/><path d="m600.127 623.206c-66.521 68.287-107.5 161.579-107.5 264.441 0 102.863 40.979 196.153 107.5 264.443 66.522-68.29 107.5-161.58 107.5-264.443 0-102.862-40.978-196.154-107.5-264.441z" fill="url(#i)"/><path d="m579.775 612.098c-92.399-23.466-193.681-12.308-282.763 39.123-89.081 51.431-149.385 133.565-175.262 225.318 92.399 23.466 193.681 12.309 282.762-39.123 89.082-51.431 149.386-133.565 175.263-225.318z" fill="url(#j)"/><path d="m579.639 612.178c-11.639 41.269-38.763 78.211-78.83 101.344-40.068 23.133-85.623 28.152-127.182 17.597 11.639-41.269 38.763-78.212 78.83-101.345 40.068-23.133 85.623-28.151 127.182-17.596z" fill="url(#k)"/><path d="m580.181 588.538c-25.877-91.753-86.181-173.886-175.263-225.318-89.081-51.431-190.363-62.589-282.762-39.122 25.877 91.753 86.181 173.886 175.262 225.318 89.082 51.431 190.364 62.589 282.763 39.122z" fill="url(#l)"/></g></svg>